<mxfile host="app.diagrams.net" modified="2020-12-17T10:51:03.075Z" agent="5.0 (Windows NT 10.0; Win64; x64) AppleWebKit/537.36 (KHTML, like Gecko) Chrome/87.0.4280.88 Safari/537.36 Edg/87.0.664.60" etag="ZAs6XHxnUbUeG5cq6dy6" version="14.0.4" type="github">
  <diagram id="a2SeSxV-dU5_Vpd82xMR" name="Page-1">
    <mxGraphModel dx="1038" dy="548" grid="1" gridSize="10" guides="1" tooltips="1" connect="1" arrows="1" fold="1" page="1" pageScale="1" pageWidth="827" pageHeight="1169" math="0" shadow="0">
      <root>
        <mxCell id="0" />
        <mxCell id="1" parent="0" />
        <mxCell id="BW2VcDT7gtz4ToeszrBm-8" value="User" style="shape=umlActor;verticalLabelPosition=bottom;verticalAlign=top;html=1;" parent="1" vertex="1">
          <mxGeometry x="60" y="260" width="30" height="60" as="geometry" />
        </mxCell>
        <mxCell id="BW2VcDT7gtz4ToeszrBm-9" value="&lt;p style=&quot;margin: 0px ; margin-top: 4px ; text-align: center&quot;&gt;&lt;b&gt;&lt;i&gt;&amp;lt;&lt;/i&gt;&amp;lt;boundary&lt;i&gt;&amp;gt;&amp;gt;&lt;/i&gt;&lt;br&gt;V_NewsPage&lt;/b&gt;&lt;/p&gt;&lt;hr size=&quot;1&quot;&gt;&lt;div&gt;+ news_name&lt;/div&gt;&lt;div&gt;+ news_link&lt;/div&gt;&lt;div&gt;&lt;br&gt;&lt;/div&gt;&lt;br&gt;&lt;hr size=&quot;1&quot;&gt;&lt;p style=&quot;margin: 0px ; margin-left: 4px&quot;&gt;&lt;br&gt;&lt;/p&gt;" style="verticalAlign=top;align=left;overflow=fill;fontSize=12;fontFamily=Helvetica;html=1;" parent="1" vertex="1">
          <mxGeometry x="190" y="330" width="130" height="130" as="geometry" />
        </mxCell>
        <mxCell id="BW2VcDT7gtz4ToeszrBm-10" value="&lt;p style=&quot;margin: 0px ; margin-top: 4px ; text-align: center&quot;&gt;&lt;b&gt;&lt;i&gt;&amp;lt;&lt;/i&gt;&amp;lt;control&lt;i&gt;&amp;gt;&amp;gt;&lt;/i&gt;&lt;br&gt;C_NewsPage&lt;/b&gt;&lt;/p&gt;&lt;hr size=&quot;1&quot;&gt;&lt;br&gt;&lt;hr size=&quot;1&quot;&gt;&lt;p style=&quot;margin: 0px ; margin-left: 4px&quot;&gt;+ openNewsPage()&lt;br&gt;&lt;br&gt;&lt;/p&gt;" style="verticalAlign=top;align=left;overflow=fill;fontSize=12;fontFamily=Helvetica;html=1;" parent="1" vertex="1">
          <mxGeometry x="520" y="330" width="140" height="130" as="geometry" />
        </mxCell>
        <mxCell id="BW2VcDT7gtz4ToeszrBm-11" value="" style="endArrow=classic;html=1;exitX=1.008;exitY=0.406;exitDx=0;exitDy=0;exitPerimeter=0;entryX=0.012;entryY=0.392;entryDx=0;entryDy=0;entryPerimeter=0;" parent="1" source="BW2VcDT7gtz4ToeszrBm-9" target="BW2VcDT7gtz4ToeszrBm-10" edge="1">
          <mxGeometry width="50" height="50" relative="1" as="geometry">
            <mxPoint x="390" y="320" as="sourcePoint" />
            <mxPoint x="431" y="308" as="targetPoint" />
          </mxGeometry>
        </mxCell>
        <mxCell id="BW2VcDT7gtz4ToeszrBm-12" value="" style="endArrow=classic;html=1;entryX=0;entryY=0.5;entryDx=0;entryDy=0;" parent="1" target="BW2VcDT7gtz4ToeszrBm-9" edge="1">
          <mxGeometry width="50" height="50" relative="1" as="geometry">
            <mxPoint x="100" y="310" as="sourcePoint" />
            <mxPoint x="180" y="294" as="targetPoint" />
          </mxGeometry>
        </mxCell>
        <mxCell id="3R42G2zZlR5V5u26kG0p-3" value="&lt;&lt;boundary&gt;&gt;&#xa;V_HomePage" style="swimlane;fontStyle=1;align=center;verticalAlign=top;childLayout=stackLayout;horizontal=1;startSize=40;horizontalStack=0;resizeParent=1;resizeParentMax=0;resizeLast=0;collapsible=1;marginBottom=0;" vertex="1" parent="1">
          <mxGeometry x="185" y="10" width="160" height="200" as="geometry" />
        </mxCell>
        <mxCell id="3R42G2zZlR5V5u26kG0p-4" value="  " style="text;strokeColor=none;fillColor=none;align=left;verticalAlign=top;spacingLeft=4;spacingRight=4;overflow=hidden;rotatable=0;points=[[0,0.5],[1,0.5]];portConstraint=eastwest;" vertex="1" parent="3R42G2zZlR5V5u26kG0p-3">
          <mxGeometry y="40" width="160" height="26" as="geometry" />
        </mxCell>
        <mxCell id="3R42G2zZlR5V5u26kG0p-5" value="" style="line;strokeWidth=1;fillColor=none;align=left;verticalAlign=middle;spacingTop=-1;spacingLeft=3;spacingRight=3;rotatable=0;labelPosition=right;points=[];portConstraint=eastwest;" vertex="1" parent="3R42G2zZlR5V5u26kG0p-3">
          <mxGeometry y="66" width="160" height="8" as="geometry" />
        </mxCell>
        <mxCell id="3R42G2zZlR5V5u26kG0p-6" value="+ hienTrangChu()&#xa;+hienTimKiem()&#xa;+ hienDangNhap()&#xa;+ hienDangKy()&#xa;+ hienSanPham()&#xa;+ hienGioiThieu()&#xa;+ hienTinTuc()&#xa;+hienLienHe()" style="text;strokeColor=none;fillColor=none;align=left;verticalAlign=top;spacingLeft=4;spacingRight=4;overflow=hidden;rotatable=0;points=[[0,0.5],[1,0.5]];portConstraint=eastwest;" vertex="1" parent="3R42G2zZlR5V5u26kG0p-3">
          <mxGeometry y="74" width="160" height="126" as="geometry" />
        </mxCell>
        <mxCell id="3R42G2zZlR5V5u26kG0p-7" value="" style="endArrow=classic;html=1;" edge="1" parent="1">
          <mxGeometry width="50" height="50" relative="1" as="geometry">
            <mxPoint x="100" y="280" as="sourcePoint" />
            <mxPoint x="180" y="180" as="targetPoint" />
          </mxGeometry>
        </mxCell>
        <mxCell id="3R42G2zZlR5V5u26kG0p-8" value="" style="endArrow=classic;html=1;entryX=0.554;entryY=-0.017;entryDx=0;entryDy=0;exitX=0.496;exitY=1.027;exitDx=0;exitDy=0;exitPerimeter=0;entryPerimeter=0;" edge="1" parent="1" source="3R42G2zZlR5V5u26kG0p-6" target="BW2VcDT7gtz4ToeszrBm-9">
          <mxGeometry width="50" height="50" relative="1" as="geometry">
            <mxPoint x="120" y="330" as="sourcePoint" />
            <mxPoint x="220" y="435" as="targetPoint" />
          </mxGeometry>
        </mxCell>
      </root>
    </mxGraphModel>
  </diagram>
</mxfile>
